<?xml version="1.0" encoding="utf-8"?>
<!-- Generator: Adobe Illustrator 22.1.0, SVG Export Plug-In . SVG Version: 6.00 Build 0)  -->
<svg version="1.2" baseProfile="tiny" id="图层_1"
	 xmlns="http://www.w3.org/2000/svg" xmlns:xlink="http://www.w3.org/1999/xlink" x="0px" y="0px" width="30px" height="30px"
	 viewBox="0 0 30 30" xml:space="preserve">
<circle fill="#7DE0D8" cx="15" cy="15" r="13.3"/>
<path fill="#3DB8AD" d="M19.3,7l-2.4,4.9l-2.4,4.9l-0.3,0.9l-3.4,5.6l4.9,4.9c0.1,0,0.1,0,0.2,0.1C22.8,27.8,28.3,22,28.3,15
	c0-0.8-0.1-1.6-0.2-2.4l-6.8-6.7C21.3,5.9,19.3,7,19.3,7z"/>
<path fill="#FFFFFF" d="M13.5,17.2c0,0-0.5-0.6-0.6-1.8s0-2.3,0-2.4v-0.4l0.5,0.8l-0.3-0.9c0-0.1,0.3-1.6,1.6-3.3
	C16,7.6,18,5.9,18,5.9l0.2-0.2v0.9l0.2-0.8h0.1c0,0,0.5-0.1,1.2-0.1H20c0.6,0,1.2,0.1,1.2,0.1h0.3L21.3,6c0,0-1.2,0.9-1.3,1.8
	c-0.1,0.9-0.1,1.3-0.1,1.3v0.1L19,9.6l1-0.1v0.2c0,0.1-0.3,1.4-0.8,2.1S18.4,13,18.4,13l-1,0.2l0.8,0.1L18,13.4c0,0.1-0.8,1.3-1.6,2
	c-0.8,0.7-1.8,1.5-1.8,1.5L14.5,17v-0.2c0,0-0.1-0.5,0.5-2c0.4-0.9,0.9-2,1.2-2.8c-0.4,0.6-0.9,1.3-1.2,2.1
	c-0.7,1.5-1.2,3.1-1.2,3.1l-0.1,0.2C13.7,17.4,13.5,17.2,13.5,17.2z"/>
<path d="M21.3,5.6c0,0-0.6-0.1-1.2-0.1h-0.3c-0.7,0-1,0-1.8,0.3S16,7.3,14.7,9s-1.6,3.4-1.6,3.5v0.3l-0.5-0.6c0,0,0.1,0.8,0.1,1.1
	c0,0.4,0,1,0.1,2.3c0.1,0.7,0.2,1.2,0.4,1.5H9.9l1.2,1.5l-1,5.3h8.3l-1-5.2l1.1-1.6h-3.9c0,0,1.1-0.8,1.9-1.5
	c0.8-0.7,2.4-2.8,2.8-3.6c0.4-0.8,0.7-1.7,0.8-2.4S20.1,8,20.3,7.5C20.5,7,21.1,6.3,21.4,6l0.4-0.3L21.3,5.6z M19.9,7.8
	c-0.1,1-0.1,1.4-0.1,1.4l-1.5,0.6l1.5-0.1c0,0-0.3,1.3-0.7,2c-0.4,0.7-0.8,1.2-0.8,1.2l-1.9,0.3l1.5,0.1c0,0-0.8,1.3-1.5,2
	c-0.8,0.7-1.8,1.5-1.8,1.5s-0.1-0.4,0.5-2c0.6-1.5,1.7-3.8,1.7-3.8s-1.2,1.5-1.9,3c-0.6,1.3-1.1,2.7-1.2,3.1h-0.1
	c-0.1-0.2-0.4-0.7-0.4-1.7c-0.1-1.2,0-2.3,0-2.3l0.7,1.2l-0.5-1.8c0,0,0.3-1.5,1.5-3.2C16.1,7.6,18.1,6,18.1,6v1.5l0.4-1.6
	c0,0,0.5-0.1,1.2-0.1H20c0.6,0,1.2,0.1,1.2,0.1S20,6.9,19.9,7.8z"/>
<path fill="#FFFFFF" d="M10.7,23.4l0.9-4.9l-0.7-0.9h6.7l-0.7,1l0.9,4.8C17.8,23.4,10.7,23.4,10.7,23.4z"/>
<path d="M12,20.9l-0.3,1.7h5.1l-0.3-1.7H12z"/>
</svg>
