<svg xmlns="http://www.w3.org/2000/svg" baseProfile="tiny" version="1.2" viewBox="0 0 30 30"><defs/><path fill="#B5B5B5" d="M19 17.2c-.3.3-.8.5-1.3.5-.7 0-1.3-.3-1.9-.8-1.1-1-1.3-2.3-.6-3.1L3 2.5l-.9.9 8.6 18.1 8.9 2.8 3.1 4.4 4.2-4.2-7.9-7.3z"/><path fill="#FFF" d="M19.1 17.3l7.9 7.3 1.9-1.9-4.5-3.3-2.8-5.2L3.5 1.9l-.2.2 12 11.2c.4-.3.9-.5 1.4-.4.6.1 1.3.4 1.8.8.5.5.9 1.1 1 1.7.1.7 0 1.3-.4 1.7v.2zM10.7 21.5L2.1 3.4l-.1.1 7.8 17.7.9.3z"/><path d="M24.7 19.1l-2.8-5.2L3.5 1.3l-2.1 2 8 18.2v.1l9.8 3 3.5 4.9 6.8-6.8-4.8-3.6zm-5.1 5.2l-9.8-3.1L2 3.5l1-1 12 11.2c-.6.9-.3 2.3.7 3.2.6.6 1.4.8 2 .8s1.1-.2 1.4-.6c.4-.4.5-1 .4-1.7-.1-.6-.5-1.2-1-1.7s-1.2-.8-1.8-.8c-.6-.1-1.1.1-1.4.4L3.3 2.1l.2-.2 18.1 12.3 2.8 5.2 4.3 3.3-6 6-3.1-4.4zm-4-10.3c.2-.2.5-.4.9-.4h.2c.5 0 1 .3 1.4.7s.7.9.8 1.4c.1.5 0 .9-.2 1.1-.5.6-1.7.5-2.5-.3-.9-.8-1.2-1.9-.6-2.5z"/></svg>